HIERARCHY
ROOT newVegas:Hips
{
	OFFSET 0.000000 96.479958 0.000000
	CHANNELS 6 Xposition Yposition Zposition Xrotation Yrotation Zrotation
	JOINT newVegas:Pelvis
	{
		OFFSET 0.000000 0.000000 0.000000
		CHANNELS 3 Xrotation Yrotation Zrotation
		JOINT newVegas:LeftUpLeg
		{
			OFFSET 18.735201 -5.666702 -4.541200
			CHANNELS 3 Xrotation Yrotation Zrotation
			JOINT newVegas:LeftLeg
			{
				OFFSET -0.021200 -31.938179 0.493100
				CHANNELS 3 Xrotation Yrotation Zrotation
				JOINT newVegas:LeftFoot
				{
					OFFSET 0.021200 -31.938179 -4.336299
					CHANNELS 3 Xrotation Yrotation Zrotation
					JOINT newVegas:LeftToeBase
					{
						OFFSET 0.943001 -26.722000 15.023500
						CHANNELS 3 Xrotation Yrotation Zrotation
						End Site
						{
							OFFSET 0.000000 30.670183 0.000000
						}
					}
				}
				JOINT newVegas:Left_PantLeg
				{
					OFFSET 0.663870 -9.044666 -1.108900
					CHANNELS 3 Xrotation Yrotation Zrotation
					End Site
					{
						OFFSET 1.415995 20.635357 0.000000
					}
				}
			}
		}
		JOINT newVegas:RightUpLeg
		{
			OFFSET -18.735201 -5.666702 -4.541200
			CHANNELS 3 Xrotation Yrotation Zrotation
			JOINT newVegas:RightLeg
			{
				OFFSET 0.018946 -31.938133 0.493100
				CHANNELS 3 Xrotation Yrotation Zrotation
				JOINT newVegas:RightFoot
				{
					OFFSET -0.018946 -31.938126 -4.336299
					CHANNELS 3 Xrotation Yrotation Zrotation
					JOINT newVegas:RightToeBase
					{
						OFFSET -0.943001 -26.722004 15.023500
						CHANNELS 3 Xrotation Yrotation Zrotation
						End Site
						{
							OFFSET 0.000000 30.670187 0.000000
						}
					}
				}
				JOINT newVegas:Right_PantLeg
				{
					OFFSET -0.661674 -9.044716 -1.108900
					CHANNELS 3 Xrotation Yrotation Zrotation
					End Site
					{
						OFFSET -1.415958 20.635269 0.000000
					}
				}
			}
		}
	}
	JOINT newVegas:Spine
	{
		OFFSET 0.000000 10.199997 -0.299500
		CHANNELS 3 Xrotation Yrotation Zrotation
		JOINT newVegas:Spine1
		{
			OFFSET 0.000000 11.900002 -1.516600
			CHANNELS 3 Xrotation Yrotation Zrotation
			JOINT newVegas:Spine2
			{
				OFFSET 0.000000 13.600006 -2.842500
				CHANNELS 3 Xrotation Yrotation Zrotation
				JOINT newVegas:Neck
				{
					OFFSET 0.000000 9.624100 -2.890100
					CHANNELS 3 Xrotation Yrotation Zrotation
					JOINT newVegas:Head
					{
						OFFSET 0.000000 14.068802 -1.351900
						CHANNELS 3 Xrotation Yrotation Zrotation
						JOINT newVegas:Hair_Back
						{
							OFFSET 0.000000 3.231903 -17.524799
							CHANNELS 3 Xrotation Yrotation Zrotation
							End Site
							{
								OFFSET 0.000000 19.849884 0.000000
							}
						}
						JOINT newVegas:Hair_Front
						{
							OFFSET 0.000000 31.260406 4.573800
							CHANNELS 3 Xrotation Yrotation Zrotation
							JOINT newVegas:Hair_Front1
							{
								OFFSET 0.000000 2.284103 11.993300
								CHANNELS 3 Xrotation Yrotation Zrotation
								JOINT newVegas:Hair_Front2
								{
									OFFSET 0.000000 2.284103 11.993300
									CHANNELS 3 Xrotation Yrotation Zrotation
									End Site
									{
										OFFSET 0.000000 12.208862 0.000000
									}
								}
							}
						}
						JOINT newVegas:Jowel
						{
							OFFSET 0.000000 -7.458206 6.864100
							CHANNELS 3 Xrotation Yrotation Zrotation
							End Site
							{
								OFFSET 0.000000 19.849884 0.000000
							}
						}
					}
				}
				JOINT newVegas:LeftShoulder
				{
					OFFSET 15.263000 10.923401 -0.547700
					CHANNELS 3 Xrotation Yrotation Zrotation
					JOINT newVegas:LeftArm
					{
						OFFSET 25.438599 -2.830597 -13.032500
						CHANNELS 3 Xrotation Yrotation Zrotation
						JOINT newVegas:LeftForeArm
						{
							OFFSET 29.960503 0.000000 0.000000
							CHANNELS 3 Xrotation Yrotation Zrotation
							JOINT newVegas:LeftHand
							{
								OFFSET 27.849251 0.000000 0.000000
								CHANNELS 3 Xrotation Yrotation Zrotation
								JOINT newVegas:LeftHandThumb1
								{
									OFFSET 4.487587 -3.305161 6.305391
									CHANNELS 3 Xrotation Yrotation Zrotation
									JOINT newVegas:LeftHandThumb2
									{
										OFFSET 5.480453 -3.164139 3.164143
										CHANNELS 3 Xrotation Yrotation Zrotation
										JOINT newVegas:LeftHandThumb3
										{
											OFFSET 5.159721 -2.978973 2.978967
											CHANNELS 3 Xrotation Yrotation Zrotation
											End Site
											{
												OFFSET 2.494507 5.926697 1.738678
											}
										}
									}
								}
								JOINT newVegas:LeftHandIndex1
								{
									OFFSET 18.578728 -0.527832 5.208049
									CHANNELS 3 Xrotation Yrotation Zrotation
									JOINT newVegas:LeftHandIndex2
									{
										OFFSET 3.192009 0.000000 0.000000
										CHANNELS 3 Xrotation Yrotation Zrotation
										JOINT newVegas:LeftHandIndex3
										{
											OFFSET 3.835129 0.000000 0.000000
											CHANNELS 3 Xrotation Yrotation Zrotation
											End Site
											{
												OFFSET -0.034599 3.816971 0.371180
											}
										}
									}
								}
								JOINT newVegas:LeftHandMiddle1
								{
									OFFSET 18.476105 0.000000 0.000000
									CHANNELS 3 Xrotation Yrotation Zrotation
									JOINT newVegas:LeftHandMiddle2
									{
										OFFSET 3.324875 0.000000 0.000000
										CHANNELS 3 Xrotation Yrotation Zrotation
										JOINT newVegas:LeftHandMiddle3
										{
											OFFSET 4.596550 0.000000 0.000000
											CHANNELS 3 Xrotation Yrotation Zrotation
											End Site
											{
												OFFSET 0.057701 4.578827 0.399218
											}
										}
									}
								}
								JOINT newVegas:LeftHandRing1
								{
									OFFSET 17.732719 0.121887 -4.201567
									CHANNELS 3 Xrotation Yrotation Zrotation
									JOINT newVegas:LeftHandRing2
									{
										OFFSET 2.733170 0.000000 0.000000
										CHANNELS 3 Xrotation Yrotation Zrotation
										JOINT newVegas:LeftHandRing3
										{
											OFFSET 3.178268 0.000000 0.000000
											CHANNELS 3 Xrotation Yrotation Zrotation
											End Site
											{
												OFFSET 0.119102 3.170624 0.185394
											}
										}
									}
								}
								JOINT newVegas:LeftHandPinky1
								{
									OFFSET 15.989624 -0.606689 -7.535461
									CHANNELS 3 Xrotation Yrotation Zrotation
									JOINT newVegas:LeftHandPinky2
									{
										OFFSET 2.538986 0.000000 0.000000
										CHANNELS 3 Xrotation Yrotation Zrotation
										JOINT newVegas:LeftHandPinky3
										{
											OFFSET 2.593102 0.000000 0.000000
											CHANNELS 3 Xrotation Yrotation Zrotation
											End Site
											{
												OFFSET -0.150902 2.584198 0.152708
											}
										}
									}
								}
							}
							JOINT newVegas:Left_Sleeve
							{
								OFFSET 0.267448 -0.649796 0.577675
								CHANNELS 3 Xrotation Yrotation Zrotation
								End Site
								{
									OFFSET 0.000000 15.991241 0.000000
								}
							}
							JOINT newVegas:Left_CapeC
							{
								OFFSET 15.715958 -8.608795 -6.935905
								CHANNELS 3 Xrotation Yrotation Zrotation
								JOINT newVegas:Left_CapeC1
								{
									OFFSET 0.000000 -8.688499 0.000000
									CHANNELS 3 Xrotation Yrotation Zrotation
									End Site
									{
										OFFSET 0.000000 8.688499 0.000000
									}
								}
							}
						}
						JOINT newVegas:Left_CapeB
						{
							OFFSET 26.118385 -8.608795 -7.079235
							CHANNELS 3 Xrotation Yrotation Zrotation
							JOINT newVegas:Left_CapeB1
							{
								OFFSET 0.000000 -8.688499 0.000000
								CHANNELS 3 Xrotation Yrotation Zrotation
								End Site
								{
									OFFSET 0.000000 8.688499 0.000000
								}
							}
						}
						JOINT newVegas:Left_CapeA
						{
							OFFSET 5.115639 -8.608795 -10.395809
							CHANNELS 3 Xrotation Yrotation Zrotation
							JOINT newVegas:Left_CapeA1
							{
								OFFSET 0.000000 -8.688499 0.000000
								CHANNELS 3 Xrotation Yrotation Zrotation
								End Site
								{
									OFFSET 0.000000 8.688499 0.000000
								}
							}
						}
					}
				}
				JOINT newVegas:RightShoulder
				{
					OFFSET -15.263000 10.923401 -0.547700
					CHANNELS 3 Xrotation Yrotation Zrotation
					JOINT newVegas:RightArm
					{
						OFFSET -25.438599 -2.830597 -13.032500
						CHANNELS 3 Xrotation Yrotation Zrotation
						JOINT newVegas:RightForeArm
						{
							OFFSET -29.960503 0.000000 0.000000
							CHANNELS 3 Xrotation Yrotation Zrotation
							JOINT newVegas:RightHand
							{
								OFFSET -27.849251 0.000000 0.000000
								CHANNELS 3 Xrotation Yrotation Zrotation
								JOINT newVegas:RightHandThumb1
								{
									OFFSET -4.487587 -3.305161 6.305391
									CHANNELS 3 Xrotation Yrotation Zrotation
									JOINT newVegas:RightHandThumb2
									{
										OFFSET -5.480453 -3.164139 3.164143
										CHANNELS 3 Xrotation Yrotation Zrotation
										JOINT newVegas:RightHandThumb3
										{
											OFFSET -5.159721 -2.978973 2.978967
											CHANNELS 3 Xrotation Yrotation Zrotation
											End Site
											{
												OFFSET -2.494507 5.926697 1.738678
											}
										}
									}
								}
								JOINT newVegas:RightHandIndex1
								{
									OFFSET -18.578728 -0.527832 5.208049
									CHANNELS 3 Xrotation Yrotation Zrotation
									JOINT newVegas:RightHandIndex2
									{
										OFFSET -3.192009 0.000000 0.000000
										CHANNELS 3 Xrotation Yrotation Zrotation
										JOINT newVegas:RightHandIndex3
										{
											OFFSET -3.835129 0.000000 0.000000
											CHANNELS 3 Xrotation Yrotation Zrotation
											End Site
											{
												OFFSET 0.034599 3.816971 0.371180
											}
										}
									}
								}
								JOINT newVegas:RightHandMiddle1
								{
									OFFSET -18.476105 0.000000 0.000000
									CHANNELS 3 Xrotation Yrotation Zrotation
									JOINT newVegas:RightHandMiddle2
									{
										OFFSET -3.324875 0.000000 0.000000
										CHANNELS 3 Xrotation Yrotation Zrotation
										JOINT newVegas:RightHandMiddle3
										{
											OFFSET -4.596550 0.000000 0.000000
											CHANNELS 3 Xrotation Yrotation Zrotation
											End Site
											{
												OFFSET -0.057701 4.578827 0.399218
											}
										}
									}
								}
								JOINT newVegas:RightHandRing1
								{
									OFFSET -17.732719 0.121887 -4.201567
									CHANNELS 3 Xrotation Yrotation Zrotation
									JOINT newVegas:RightHandRing2
									{
										OFFSET -2.733170 0.000000 0.000000
										CHANNELS 3 Xrotation Yrotation Zrotation
										JOINT newVegas:RightHandRing3
										{
											OFFSET -3.178268 0.000000 0.000000
											CHANNELS 3 Xrotation Yrotation Zrotation
											End Site
											{
												OFFSET -0.119102 3.170624 0.185394
											}
										}
									}
								}
								JOINT newVegas:RightHandPinky1
								{
									OFFSET -15.989624 -0.606689 -7.535461
									CHANNELS 3 Xrotation Yrotation Zrotation
									JOINT newVegas:RightHandPinky2
									{
										OFFSET -2.538986 0.000000 0.000000
										CHANNELS 3 Xrotation Yrotation Zrotation
										JOINT newVegas:RightHandPinky3
										{
											OFFSET -2.593102 0.000000 0.000000
											CHANNELS 3 Xrotation Yrotation Zrotation
											End Site
											{
												OFFSET 0.150902 2.584198 0.152708
											}
										}
									}
								}
							}
							JOINT newVegas:Right_CapeC
							{
								OFFSET -15.715958 -8.608795 -6.935905
								CHANNELS 3 Xrotation Yrotation Zrotation
								JOINT newVegas:Right_CapeC1
								{
									OFFSET 0.000000 -8.688499 0.000000
									CHANNELS 3 Xrotation Yrotation Zrotation
									End Site
									{
										OFFSET 0.000000 8.688499 0.000000
									}
								}
							}
							JOINT newVegas:Right_Sleeve
							{
								OFFSET -0.267448 -0.649994 0.577675
								CHANNELS 3 Xrotation Yrotation Zrotation
								End Site
								{
									OFFSET 0.000000 15.991302 0.000000
								}
							}
						}
						JOINT newVegas:Right_CapeA
						{
							OFFSET -5.115540 -8.608795 -10.395824
							CHANNELS 3 Xrotation Yrotation Zrotation
							JOINT newVegas:Right_CapeA1
							{
								OFFSET 0.000000 -8.688499 0.000000
								CHANNELS 3 Xrotation Yrotation Zrotation
								End Site
								{
									OFFSET 0.000000 8.688499 0.000000
								}
							}
						}
						JOINT newVegas:Right_CapeB
						{
							OFFSET -26.118187 -8.608795 -7.079266
							CHANNELS 3 Xrotation Yrotation Zrotation
							JOINT newVegas:Right_CapeB1
							{
								OFFSET 0.000000 -8.688499 0.000000
								CHANNELS 3 Xrotation Yrotation Zrotation
								End Site
								{
									OFFSET 0.000000 8.688499 0.000000
								}
							}
						}
					}
				}
				JOINT newVegas:Left_Collar
				{
					OFFSET 18.625099 8.655502 8.828100
					CHANNELS 3 Xrotation Yrotation Zrotation
					JOINT newVegas:Left_Collar1
					{
						OFFSET 14.783401 10.540405 -1.259500
						CHANNELS 3 Xrotation Yrotation Zrotation
						End Site
						{
							OFFSET 0.000000 18.199875 0.000000
						}
					}
				}
				JOINT newVegas:Collar_Back
				{
					OFFSET 0.000000 15.630707 -20.132601
					CHANNELS 3 Xrotation Yrotation Zrotation
					End Site
					{
						OFFSET 0.000000 22.523010 0.000000
					}
				}
				JOINT newVegas:Left_Peck
				{
					OFFSET 17.239599 -5.132599 25.482599
					CHANNELS 3 Xrotation Yrotation Zrotation
					End Site
					{
						OFFSET 0.000000 22.523010 0.000000
					}
				}
				JOINT newVegas:Right_Peck
				{
					OFFSET -17.239599 -5.132202 25.482599
					CHANNELS 3 Xrotation Yrotation Zrotation
					End Site
					{
						OFFSET 0.000000 22.523010 0.000000
					}
				}
				JOINT newVegas:Right_Collar
				{
					OFFSET -18.625099 8.655792 8.828100
					CHANNELS 3 Xrotation Yrotation Zrotation
					JOINT newVegas:Right_Collar1
					{
						OFFSET -14.783401 10.539993 -1.259500
						CHANNELS 3 Xrotation Yrotation Zrotation
						End Site
						{
							OFFSET 0.000000 18.199631 0.000000
						}
					}
				}
			}
		}
		JOINT newVegas:Belly
		{
			OFFSET 0.000000 -6.540398 9.014299
			CHANNELS 3 Xrotation Yrotation Zrotation
			End Site
			{
				OFFSET 0.000000 11.566666 0.000000
			}
		}
	}
	JOINT newVegas:ElvisFacialAnim_Joint
	{
		OFFSET 1.000000 -95.330101 -8.825800
		CHANNELS 3 Xrotation Yrotation Zrotation
		End Site
		{
			OFFSET 0.000000 35.315800 0.000000
		}
	}
}
MOTION
Frames: 4
Frame Time: 0.016667
2.140974 93.002686 15.032650 4.071644 36.481693 -2.823963 -0.000000 0.000002 -0.000000 -31.166088 5.788312 5.239941 24.675763 -35.280885 -5.020141 -2.364359 -6.089759 1.587640 -0.000000 -0.000000 0.000000 0.000000 0.000000 0.000001 -20.469180 14.937991 0.955680 28.367990 12.616374 0.956349 -11.921686 2.494502 0.230156 -0.000000 -0.000001 -0.000000 0.000001 0.000000 -0.000000 7.112209 0.524375 -2.366497 1.179945 0.647741 1.438047 1.171142 0.823284 1.416790 -0.583332 5.149273 -1.668765 -0.583340 5.149256 -1.668760 -0.000001 0.000000 0.000000 -0.583406 5.149290 -1.668762 -0.583262 5.149263 -1.668772 0.000001 -0.000001 0.000000 -0.000001 0.000000 -0.000000 -0.063459 -2.703538 -0.486094 -58.743834 21.372249 -22.798862 10.391522 -75.898360 11.787540 -50.033895 13.093961 4.982020 17.538841 -5.734683 -12.929158 10.855099 26.140259 8.645414 0.000003 -0.000002 -0.000003 13.990894 1.412565 -54.992032 0.369635 1.160689 -65.362561 -0.000001 -0.000001 0.000001 7.444387 1.211111 -63.725563 1.805173 1.477023 -64.469473 -0.000001 -0.000000 -0.000001 8.572763 2.194650 -75.055733 -0.208473 1.006741 -57.746408 0.000000 -0.000000 -0.000003 10.012761 13.637246 -84.737649 0.876225 0.062024 -64.553907 0.000001 0.000000 -0.000002 0.000002 0.000000 0.000001 0.000002 0.000000 0.000001 0.000001 0.000000 0.000001 -0.000000 0.000001 0.000001 -0.000000 0.000000 0.000000 -0.000000 0.000001 0.000001 -0.000000 -0.000001 0.000000 4.836707 8.975272 6.727819 10.740035 17.144864 61.498409 10.869378 22.267137 -5.100404 -0.366004 5.346423 5.429076 15.788517 -2.734472 -17.205880 -1.822810 -31.650830 7.412937 -0.000000 0.000000 -0.000000 2.375262 -3.654540 13.539320 -2.144079 -2.475447 24.342712 0.000000 -0.000000 -0.000000 -1.975819 -5.709679 18.810595 0.284024 -5.102719 32.657573 -0.000000 0.000000 -0.000000 -3.263389 -8.564372 16.917267 4.034738 -4.065629 38.932317 0.000001 0.000002 0.000001 -6.473122 -11.350212 28.409166 10.721018 -2.560791 40.492401 0.000002 -0.000000 0.000002 0.000001 0.000000 -0.000002 0.000001 -0.000000 -0.000002 0.000001 0.000000 -0.000001 -0.000001 0.000001 -0.000000 -0.000001 0.000002 -0.000001 -0.000001 0.000001 -0.000000 -0.000001 0.000002 0.000000 -0.000000 -0.000005 0.000001 -0.000000 -0.000005 0.000001 -0.000000 -0.000005 0.000001 -0.000000 -0.000005 0.000001 -0.000000 -0.000005 0.000001 -0.000000 -0.000005 0.000001 -0.000000 -0.000005 0.000001 -0.000001 -0.000002 -0.000000 -0.000000 0.000002 -0.000000 
1.626553 93.047409 15.244566 4.330037 39.304638 -3.274341 -0.000000 -0.000000 -0.000000 -31.685814 5.992470 5.887481 23.820049 -38.637561 -5.216965 -2.666063 -4.096463 0.750131 -0.000000 0.000000 0.000000 0.000000 0.000001 0.000000 -19.687858 13.947943 1.545555 28.113458 11.528222 0.871100 -12.231918 1.467357 -0.460442 -0.000000 -0.000003 0.000000 -0.000000 -0.000001 -0.000001 7.213651 0.392435 -2.561390 1.139008 0.472331 1.508120 1.129821 0.657995 1.495978 -0.581826 4.951254 -1.671110 -0.581833 4.951255 -1.671106 -0.000001 0.000001 -0.000001 -0.581828 4.951252 -1.671111 -0.581826 4.951269 -1.671112 -0.000001 0.000002 -0.000000 -0.000001 0.000001 -0.000001 -0.098273 -4.304833 -0.130151 -58.723467 20.289164 -23.609847 9.881779 -75.007047 11.444814 -50.003391 13.081684 4.645808 17.538835 -5.734765 -12.929164 10.856110 26.143014 8.645554 0.000004 -0.000002 -0.000003 13.990642 1.416742 -54.990140 0.369572 1.160649 -65.359385 -0.000003 -0.000002 -0.000001 7.443670 1.211614 -63.724579 1.805146 1.477047 -64.467949 0.000001 -0.000000 -0.000000 8.572797 2.194692 -75.057591 -0.208459 1.006785 -57.748157 -0.000001 -0.000000 -0.000005 10.014146 13.637236 -84.738605 0.876253 0.062027 -64.556086 0.000001 0.000000 0.000001 0.000000 0.000000 -0.000000 0.000000 0.000000 -0.000000 -0.000000 0.000001 0.000000 0.000001 -0.000001 -0.000000 0.000001 -0.000002 -0.000001 0.000001 -0.000001 -0.000000 0.000001 -0.000003 -0.000001 4.845230 8.887821 6.669461 9.629282 15.060109 62.090279 10.941260 22.517802 -5.122155 -0.392312 5.635245 5.539864 15.788508 -2.734473 -17.205882 -1.914346 -31.520131 7.399885 0.000001 -0.000002 -0.000001 2.374037 -3.654739 14.015424 -2.143516 -2.475487 24.691638 -0.000000 -0.000000 0.000003 -1.975729 -5.709861 19.281542 0.284158 -5.104059 33.006479 -0.000002 -0.000001 0.000005 -3.264512 -8.564581 17.388002 4.034668 -4.065525 39.281190 0.000001 0.000001 -0.000000 -6.473073 -11.350456 28.880048 10.721163 -2.560936 40.841301 0.000000 0.000002 0.000000 0.000000 -0.000000 -0.000001 0.000000 -0.000000 -0.000001 -0.000000 0.000000 0.000000 -0.000001 0.000000 -0.000000 -0.000001 0.000001 -0.000000 -0.000001 0.000000 -0.000000 -0.000001 0.000001 -0.000000 0.000001 -0.000001 -0.000000 0.000001 -0.000001 -0.000000 0.000001 -0.000001 -0.000000 0.000001 -0.000001 -0.000000 0.000001 -0.000001 -0.000000 0.000001 -0.000001 -0.000000 0.000001 -0.000001 -0.000000 -0.000001 0.000002 -0.000001 -0.000000 -0.000000 -0.000000 
1.081266 93.055397 15.358496 4.732124 41.601907 -3.884268 -0.000000 -0.000000 -0.000000 -32.208071 6.521054 7.149771 23.629068 -37.455914 -4.872523 -3.018313 -4.358154 -0.372172 -0.000001 0.000000 0.000000 -0.000000 -0.000000 0.000000 -19.306069 13.143829 2.201060 27.757515 10.212629 0.776238 -12.275365 0.986794 -0.872220 -0.000000 -0.000001 0.000000 -0.000000 -0.000001 -0.000001 7.288295 0.341716 -2.697434 1.074960 0.409436 1.547330 1.065680 0.600864 1.538320 -0.597445 4.764804 -1.633192 -0.597453 4.764792 -1.633189 0.000000 -0.000003 0.000000 -0.597374 4.764804 -1.633199 -0.597516 4.764785 -1.633181 0.000000 0.000002 0.000000 0.000000 -0.000003 0.000000 -0.137371 -5.857321 0.179680 -58.765124 19.401612 -24.164863 9.711235 -74.412944 11.445053 -50.015973 13.301345 4.477767 17.538799 -5.734843 -12.929128 10.857127 26.145790 8.645653 0.000002 -0.000001 -0.000006 13.990328 1.420918 -54.988282 0.369550 1.160613 -65.356263 -0.000003 -0.000000 -0.000002 7.442972 1.212070 -63.723616 1.805109 1.477054 -64.466419 0.000003 0.000000 -0.000000 8.572832 2.194727 -75.059442 -0.208438 1.006839 -57.749891 0.000000 -0.000002 -0.000001 10.015530 13.637239 -84.739596 0.876300 0.062052 -64.557732 0.000000 -0.000002 -0.000002 0.000002 -0.000001 0.000001 0.000002 -0.000001 0.000001 0.000001 -0.000000 0.000001 -0.000002 0.000001 -0.000002 -0.000002 -0.000000 -0.000003 -0.000002 0.000001 -0.000002 -0.000002 0.000000 -0.000002 4.849109 8.873616 6.578574 8.499950 12.815124 62.567340 10.948437 22.781410 -5.092088 -0.404712 5.981669 5.562205 15.788517 -2.734472 -17.205882 -1.995427 -31.404141 7.388575 0.000001 0.000003 0.000003 2.372865 -3.654846 14.485518 -2.142878 -2.475693 25.045081 0.000000 -0.000000 0.000003 -1.975676 -5.710051 19.743912 0.284329 -5.105395 33.359791 -0.000001 -0.000000 -0.000000 -3.265553 -8.564751 17.850237 4.034671 -4.066066 39.634526 -0.000001 0.000001 0.000001 -6.472940 -11.350361 29.342544 10.721304 -2.561060 41.194705 -0.000000 0.000003 -0.000000 0.000000 -0.000000 0.000001 0.000000 0.000000 0.000001 0.000000 -0.000000 0.000001 -0.000001 -0.000003 -0.000001 -0.000001 -0.000003 -0.000001 -0.000001 -0.000003 -0.000001 -0.000001 -0.000003 0.000000 0.000002 -0.000001 0.000001 0.000002 -0.000001 0.000001 0.000002 -0.000001 0.000001 0.000002 -0.000001 0.000001 0.000002 -0.000001 0.000001 0.000002 -0.000001 0.000001 0.000002 -0.000001 0.000001 -0.000000 -0.000001 -0.000000 -0.000000 -0.000000 -0.000000 
0.524338 93.053070 15.409779 5.169287 43.586217 -4.532826 -0.000000 0.000000 -0.000000 -32.600759 6.596077 8.615970 23.287984 -35.273849 -4.724534 -3.323223 -4.260850 -1.560380 0.000000 -0.000001 -0.000000 -0.000000 0.000002 -0.000000 -19.103011 12.369755 2.825649 27.361594 9.165951 0.703413 -12.172903 0.543731 -1.234453 -0.000000 0.000001 -0.000000 -0.000000 -0.000000 -0.000001 7.372684 0.332579 -2.823154 1.021576 0.402673 1.586730 1.011853 0.599494 1.577683 -0.628439 4.589330 -1.591164 -0.628441 4.589324 -1.591163 -0.000000 0.000000 0.000000 -0.628365 4.589339 -1.591170 -0.628439 4.589268 -1.591153 0.000001 -0.000001 -0.000000 -0.000000 0.000000 0.000000 -0.156236 -7.215461 0.446557 -58.915006 18.233870 -24.765112 9.439932 -73.554403 11.301858 -49.997456 13.434658 4.113501 17.538761 -5.734933 -12.929121 10.858158 26.148578 8.645793 -0.000000 -0.000001 -0.000004 13.990043 1.425093 -54.986411 0.369504 1.160570 -65.353046 0.000000 -0.000002 0.000000 7.442250 1.212564 -63.722646 1.805071 1.477097 -64.464944 -0.000000 0.000000 -0.000002 8.572858 2.194743 -75.061279 -0.208435 1.006863 -57.751654 0.000000 0.000001 -0.000002 10.016899 13.637210 -84.740566 0.876314 0.062064 -64.559023 0.000001 -0.000002 -0.000002 0.000004 -0.000001 -0.000000 0.000004 -0.000001 -0.000000 0.000003 -0.000001 0.000000 0.000001 -0.000002 0.000002 0.000001 -0.000003 -0.000001 0.000001 -0.000002 0.000002 0.000001 -0.000003 0.000001 4.849870 8.905619 6.467974 7.348093 10.428521 62.949592 10.867226 23.018805 -5.002917 -0.408421 6.356065 5.557305 15.788517 -2.734474 -17.205883 -2.064815 -31.304775 7.379073 0.000000 -0.000003 -0.000003 2.372190 -3.658616 14.937735 -2.142230 -2.475734 25.392323 -0.000000 -0.000001 0.000006 -1.975987 -5.710181 20.185579 0.284464 -5.106701 33.706994 -0.000001 -0.000001 0.000004 -3.266476 -8.564908 18.291820 4.034680 -4.065961 39.981776 0.000000 0.000002 -0.000001 -6.472835 -11.350819 29.784174 10.721329 -2.561112 41.541935 0.000001 -0.000000 -0.000001 0.000001 0.000000 0.000000 -0.000001 -0.000001 -0.000001 0.000001 0.000000 0.000000 0.000001 -0.000001 0.000000 0.000002 -0.000001 -0.000000 0.000001 -0.000001 0.000000 0.000002 -0.000001 -0.000000 -0.000000 0.000001 -0.000000 -0.000000 0.000001 -0.000000 -0.000000 0.000001 -0.000000 -0.000000 0.000001 -0.000000 -0.000000 0.000001 -0.000000 -0.000000 0.000001 -0.000000 -0.000000 0.000001 -0.000000 0.000000 -0.000002 0.000000 -0.000000 0.000000 -0.000000 
